<svg width="300" height="320" viewBox="0 0 300 320" fill="none" xmlns="http://www.w3.org/2000/svg">
<path fill-rule="evenodd" clip-rule="evenodd" d="M45.2054 315.1C46.4233 315.1 47.4107 316.084 47.4107 317.299C47.4107 318.515 46.4233 319.5 45.2054 319.5C43.9874 319.5 43 318.515 43 317.299C43 316.084 43.9874 315.1 45.2054 315.1ZM61.378 315.1C62.596 315.1 63.5833 316.084 63.5833 317.299C63.5833 318.515 62.596 319.5 61.378 319.5C60.16 319.5 59.1726 318.515 59.1726 317.299C59.1726 316.084 60.16 315.1 61.378 315.1ZM77.5506 315.1C78.7686 315.1 79.756 316.084 79.756 317.299C79.756 318.515 78.7686 319.5 77.5506 319.5C76.3326 319.5 75.3452 318.515 75.3452 317.299C75.3452 316.084 76.3326 315.1 77.5506 315.1ZM93.7232 315.1C94.9412 315.1 95.9286 316.084 95.9286 317.299C95.9286 318.515 94.9412 319.5 93.7232 319.5C92.5052 319.5 91.5179 318.515 91.5179 317.299C91.5179 316.084 92.5052 315.1 93.7232 315.1ZM109.896 315.1C111.114 315.1 112.101 316.084 112.101 317.299C112.101 318.515 111.114 319.5 109.896 319.5C108.678 319.5 107.69 318.515 107.69 317.299C107.69 316.084 108.678 315.1 109.896 315.1ZM126.068 315.1C127.286 315.1 128.274 316.084 128.274 317.299C128.274 318.515 127.286 319.5 126.068 319.5C124.85 319.5 123.863 318.515 123.863 317.299C123.863 316.084 124.85 315.1 126.068 315.1ZM142.241 315.1C143.459 315.1 144.446 316.084 144.446 317.299C144.446 318.515 143.459 319.5 142.241 319.5C141.023 319.5 140.036 318.515 140.036 317.299C140.036 316.084 141.023 315.1 142.241 315.1ZM158.414 315.1C159.632 315.1 160.619 316.084 160.619 317.299C160.619 318.515 159.632 319.5 158.414 319.5C157.196 319.5 156.208 318.515 156.208 317.299C156.208 316.084 157.196 315.1 158.414 315.1ZM174.586 315.1C175.804 315.1 176.792 316.084 176.792 317.299C176.792 318.515 175.804 319.5 174.586 319.5C173.368 319.5 172.381 318.515 172.381 317.299C172.381 316.084 173.368 315.1 174.586 315.1ZM190.759 315.007C191.977 315.007 192.964 315.992 192.964 317.207C192.964 318.422 191.977 319.407 190.759 319.407C189.541 319.407 188.554 318.422 188.554 317.207C188.554 315.992 189.541 315.007 190.759 315.007ZM206.932 315.007C208.15 315.007 209.137 315.992 209.137 317.207C209.137 318.422 208.15 319.407 206.932 319.407C205.714 319.407 204.726 318.422 204.726 317.207C204.726 315.992 205.714 315.007 206.932 315.007ZM223.104 315.007C224.322 315.007 225.31 315.992 225.31 317.207C225.31 318.422 224.322 319.407 223.104 319.407C221.886 319.407 220.899 318.422 220.899 317.207C220.899 315.992 221.886 315.007 223.104 315.007ZM239.277 315.007C240.495 315.007 241.482 315.992 241.482 317.207C241.482 318.422 240.495 319.407 239.277 319.407C238.059 319.407 237.071 318.422 237.071 317.207C237.071 315.992 238.059 315.007 239.277 315.007ZM255.449 315.007C256.667 315.007 257.655 315.992 257.655 317.207C257.655 318.422 256.667 319.407 255.449 319.407C254.231 319.407 253.244 318.422 253.244 317.207C253.244 315.992 254.231 315.007 255.449 315.007ZM271.622 315.007C272.84 315.007 273.827 315.992 273.827 317.207C273.827 318.422 272.84 319.407 271.622 319.407C270.404 319.407 269.417 318.422 269.417 317.207C269.417 315.992 270.404 315.007 271.622 315.007ZM287.795 315.007C289.013 315.007 290 315.992 290 317.207C290 318.422 289.013 319.407 287.795 319.407C286.577 319.407 285.589 318.422 285.589 317.207C285.589 315.992 286.577 315.007 287.795 315.007ZM174.586 298.966C175.804 298.966 176.792 299.951 176.792 301.166C176.792 302.381 175.804 303.366 174.586 303.366C173.368 303.366 172.381 302.381 172.381 301.166C172.381 299.951 173.368 298.966 174.586 298.966ZM190.759 298.874C191.977 298.874 192.964 299.859 192.964 301.074C192.964 302.289 191.977 303.274 190.759 303.274C189.541 303.274 188.554 302.289 188.554 301.074C188.554 299.859 189.541 298.874 190.759 298.874ZM206.932 298.874C208.15 298.874 209.137 299.859 209.137 301.074C209.137 302.289 208.15 303.274 206.932 303.274C205.714 303.274 204.726 302.289 204.726 301.074C204.726 299.859 205.714 298.874 206.932 298.874ZM223.104 298.874C224.322 298.874 225.31 299.859 225.31 301.074C225.31 302.289 224.322 303.274 223.104 303.274C221.886 303.274 220.899 302.289 220.899 301.074C220.899 299.859 221.886 298.874 223.104 298.874ZM45.2054 298.966C46.4233 298.966 47.4107 299.951 47.4107 301.166C47.4107 302.381 46.4233 303.366 45.2054 303.366C43.9874 303.366 43 302.381 43 301.166C43 299.951 43.9874 298.966 45.2054 298.966ZM77.5506 298.966C78.7686 298.966 79.756 299.951 79.756 301.166C79.756 302.381 78.7686 303.366 77.5506 303.366C76.3326 303.366 75.3452 302.381 75.3452 301.166C75.3452 299.951 76.3326 298.966 77.5506 298.966ZM109.896 298.966C111.114 298.966 112.101 299.951 112.101 301.166C112.101 302.381 111.114 303.366 109.896 303.366C108.678 303.366 107.69 302.381 107.69 301.166C107.69 299.951 108.678 298.966 109.896 298.966ZM142.241 298.966C143.459 298.966 144.446 299.951 144.446 301.166C144.446 302.381 143.459 303.366 142.241 303.366C141.023 303.366 140.036 302.381 140.036 301.166C140.036 299.951 141.023 298.966 142.241 298.966ZM158.414 298.966C159.632 298.966 160.619 299.951 160.619 301.166C160.619 302.381 159.632 303.366 158.414 303.366C157.196 303.366 156.208 302.381 156.208 301.166C156.208 299.951 157.196 298.966 158.414 298.966ZM255.449 298.874C256.667 298.874 257.655 299.859 257.655 301.074C257.655 302.289 256.667 303.274 255.449 303.274C254.231 303.274 253.244 302.289 253.244 301.074C253.244 299.859 254.231 298.874 255.449 298.874ZM61.378 298.966C62.596 298.966 63.5833 299.951 63.5833 301.166C63.5833 302.381 62.596 303.366 61.378 303.366C60.16 303.366 59.1726 302.381 59.1726 301.166C59.1726 299.951 60.16 298.966 61.378 298.966ZM271.622 298.874C272.84 298.874 273.827 299.859 273.827 301.074C273.827 302.289 272.84 303.274 271.622 303.274C270.404 303.274 269.417 302.289 269.417 301.074C269.417 299.859 270.404 298.874 271.622 298.874ZM93.7232 298.966C94.9412 298.966 95.9286 299.951 95.9286 301.166C95.9286 302.381 94.9412 303.366 93.7232 303.366C92.5052 303.366 91.5179 302.381 91.5179 301.166C91.5179 299.951 92.5052 298.966 93.7232 298.966ZM287.795 298.874C289.013 298.874 290 299.859 290 301.074C290 302.289 289.013 303.274 287.795 303.274C286.577 303.274 285.589 302.289 285.589 301.074C285.589 299.859 286.577 298.874 287.795 298.874ZM126.068 298.966C127.286 298.966 128.274 299.951 128.274 301.166C128.274 302.381 127.286 303.366 126.068 303.366C124.85 303.366 123.863 302.381 123.863 301.166C123.863 299.951 124.85 298.966 126.068 298.966ZM239.277 298.874C240.495 298.874 241.482 299.859 241.482 301.074C241.482 302.289 240.495 303.274 239.277 303.274C238.059 303.274 237.071 302.289 237.071 301.074C237.071 299.859 238.059 298.874 239.277 298.874ZM77.5506 282.833C78.7686 282.833 79.756 283.818 79.756 285.033C79.756 286.248 78.7686 287.233 77.5506 287.233C76.3326 287.233 75.3452 286.248 75.3452 285.033C75.3452 283.818 76.3326 282.833 77.5506 282.833ZM109.896 282.833C111.114 282.833 112.101 283.818 112.101 285.033C112.101 286.248 111.114 287.233 109.896 287.233C108.678 287.233 107.69 286.248 107.69 285.033C107.69 283.818 108.678 282.833 109.896 282.833ZM126.068 282.833C127.286 282.833 128.274 283.818 128.274 285.033C128.274 286.248 127.286 287.233 126.068 287.233C124.85 287.233 123.863 286.248 123.863 285.033C123.863 283.818 124.85 282.833 126.068 282.833ZM142.241 282.833C143.459 282.833 144.446 283.818 144.446 285.033C144.446 286.248 143.459 287.233 142.241 287.233C141.023 287.233 140.036 286.248 140.036 285.033C140.036 283.818 141.023 282.833 142.241 282.833ZM158.414 282.833C159.632 282.833 160.619 283.818 160.619 285.033C160.619 286.248 159.632 287.233 158.414 287.233C157.196 287.233 156.208 286.248 156.208 285.033C156.208 283.818 157.196 282.833 158.414 282.833ZM45.2054 282.833C46.4233 282.833 47.4107 283.818 47.4107 285.033C47.4107 286.248 46.4233 287.233 45.2054 287.233C43.9874 287.233 43 286.248 43 285.033C43 283.818 43.9874 282.833 45.2054 282.833ZM61.378 282.833C62.596 282.833 63.5833 283.818 63.5833 285.033C63.5833 286.248 62.596 287.233 61.378 287.233C60.16 287.233 59.1726 286.248 59.1726 285.033C59.1726 283.818 60.16 282.833 61.378 282.833ZM93.7232 282.833C94.9412 282.833 95.9286 283.818 95.9286 285.033C95.9286 286.248 94.9412 287.233 93.7232 287.233C92.5052 287.233 91.5179 286.248 91.5179 285.033C91.5179 283.818 92.5052 282.833 93.7232 282.833ZM174.586 282.833C175.804 282.833 176.792 283.818 176.792 285.033C176.792 286.248 175.804 287.233 174.586 287.233C173.368 287.233 172.381 286.248 172.381 285.033C172.381 283.818 173.368 282.833 174.586 282.833ZM190.759 282.741C191.977 282.741 192.964 283.726 192.964 284.941C192.964 286.156 191.977 287.141 190.759 287.141C189.541 287.141 188.554 286.156 188.554 284.941C188.554 283.726 189.541 282.741 190.759 282.741ZM206.932 282.741C208.15 282.741 209.137 283.726 209.137 284.941C209.137 286.156 208.15 287.141 206.932 287.141C205.714 287.141 204.726 286.156 204.726 284.941C204.726 283.726 205.714 282.741 206.932 282.741ZM223.104 282.741C224.322 282.741 225.31 283.726 225.31 284.941C225.31 286.156 224.322 287.141 223.104 287.141C221.886 287.141 220.899 286.156 220.899 284.941C220.899 283.726 221.886 282.741 223.104 282.741ZM239.277 282.741C240.495 282.741 241.482 283.726 241.482 284.941C241.482 286.156 240.495 287.141 239.277 287.141C238.059 287.141 237.071 286.156 237.071 284.941C237.071 283.726 238.059 282.741 239.277 282.741ZM255.449 282.741C256.667 282.741 257.655 283.726 257.655 284.941C257.655 286.156 256.667 287.141 255.449 287.141C254.231 287.141 253.244 286.156 253.244 284.941C253.244 283.726 254.231 282.741 255.449 282.741ZM271.622 282.741C272.84 282.741 273.827 283.726 273.827 284.941C273.827 286.156 272.84 287.141 271.622 287.141C270.404 287.141 269.417 286.156 269.417 284.941C269.417 283.726 270.404 282.741 271.622 282.741ZM287.795 282.741C289.013 282.741 290 283.726 290 284.941C290 286.156 289.013 287.141 287.795 287.141C286.577 287.141 285.589 286.156 285.589 284.941C285.589 283.726 286.577 282.741 287.795 282.741ZM45.2054 266.7C46.4233 266.7 47.4107 267.684 47.4107 268.9C47.4107 270.115 46.4233 271.1 45.2054 271.1C43.9874 271.1 43 270.115 43 268.9C43 267.684 43.9874 266.7 45.2054 266.7ZM61.378 266.7C62.596 266.7 63.5833 267.684 63.5833 268.9C63.5833 270.115 62.596 271.1 61.378 271.1C60.16 271.1 59.1726 270.115 59.1726 268.9C59.1726 267.684 60.16 266.7 61.378 266.7ZM77.5506 266.7C78.7686 266.7 79.756 267.684 79.756 268.9C79.756 270.115 78.7686 271.1 77.5506 271.1C76.3326 271.1 75.3452 270.115 75.3452 268.9C75.3452 267.684 76.3326 266.7 77.5506 266.7ZM93.7232 266.7C94.9412 266.7 95.9286 267.684 95.9286 268.9C95.9286 270.115 94.9412 271.1 93.7232 271.1C92.5052 271.1 91.5179 270.115 91.5179 268.9C91.5179 267.684 92.5052 266.7 93.7232 266.7ZM109.896 266.7C111.114 266.7 112.101 267.684 112.101 268.9C112.101 270.115 111.114 271.1 109.896 271.1C108.678 271.1 107.69 270.115 107.69 268.9C107.69 267.684 108.678 266.7 109.896 266.7ZM126.068 266.7C127.286 266.7 128.274 267.684 128.274 268.9C128.274 270.115 127.286 271.1 126.068 271.1C124.85 271.1 123.863 270.115 123.863 268.9C123.863 267.684 124.85 266.7 126.068 266.7ZM142.241 266.7C143.459 266.7 144.446 267.684 144.446 268.9C144.446 270.115 143.459 271.1 142.241 271.1C141.023 271.1 140.036 270.115 140.036 268.9C140.036 267.684 141.023 266.7 142.241 266.7ZM158.414 266.7C159.632 266.7 160.619 267.684 160.619 268.9C160.619 270.115 159.632 271.1 158.414 271.1C157.196 271.1 156.208 270.115 156.208 268.9C156.208 267.684 157.196 266.7 158.414 266.7ZM174.586 266.7C175.804 266.7 176.792 267.684 176.792 268.9C176.792 270.115 175.804 271.1 174.586 271.1C173.368 271.1 172.381 270.115 172.381 268.9C172.381 267.684 173.368 266.7 174.586 266.7ZM190.759 266.607C191.977 266.607 192.964 267.592 192.964 268.807C192.964 270.022 191.977 271.007 190.759 271.007C189.541 271.007 188.554 270.022 188.554 268.807C188.554 267.592 189.541 266.607 190.759 266.607ZM206.932 266.607C208.15 266.607 209.137 267.592 209.137 268.807C209.137 270.022 208.15 271.007 206.932 271.007C205.714 271.007 204.726 270.022 204.726 268.807C204.726 267.592 205.714 266.607 206.932 266.607ZM223.104 266.607C224.322 266.607 225.31 267.592 225.31 268.807C225.31 270.022 224.322 271.007 223.104 271.007C221.886 271.007 220.899 270.022 220.899 268.807C220.899 267.592 221.886 266.607 223.104 266.607ZM239.277 266.607C240.495 266.607 241.482 267.592 241.482 268.807C241.482 270.022 240.495 271.007 239.277 271.007C238.059 271.007 237.071 270.022 237.071 268.807C237.071 267.592 238.059 266.607 239.277 266.607ZM255.449 266.607C256.667 266.607 257.655 267.592 257.655 268.807C257.655 270.022 256.667 271.007 255.449 271.007C254.231 271.007 253.244 270.022 253.244 268.807C253.244 267.592 254.231 266.607 255.449 266.607ZM271.622 266.607C272.84 266.607 273.827 267.592 273.827 268.807C273.827 270.022 272.84 271.007 271.622 271.007C270.404 271.007 269.417 270.022 269.417 268.807C269.417 267.592 270.404 266.607 271.622 266.607ZM287.795 266.607C289.013 266.607 290 267.592 290 268.807C290 270.022 289.013 271.007 287.795 271.007C286.577 271.007 285.589 270.022 285.589 268.807C285.589 267.592 286.577 266.607 287.795 266.607ZM45.2054 250.566C46.4233 250.566 47.4107 251.551 47.4107 252.766C47.4107 253.981 46.4233 254.966 45.2054 254.966C43.9874 254.966 43 253.981 43 252.766C43 251.551 43.9874 250.566 45.2054 250.566ZM61.378 250.566C62.596 250.566 63.5833 251.551 63.5833 252.766C63.5833 253.981 62.596 254.966 61.378 254.966C60.16 254.966 59.1726 253.981 59.1726 252.766C59.1726 251.551 60.16 250.566 61.378 250.566ZM77.5506 250.566C78.7686 250.566 79.756 251.551 79.756 252.766C79.756 253.981 78.7686 254.966 77.5506 254.966C76.3326 254.966 75.3452 253.981 75.3452 252.766C75.3452 251.551 76.3326 250.566 77.5506 250.566ZM93.7232 250.566C94.9412 250.566 95.9286 251.551 95.9286 252.766C95.9286 253.981 94.9412 254.966 93.7232 254.966C92.5052 254.966 91.5179 253.981 91.5179 252.766C91.5179 251.551 92.5052 250.566 93.7232 250.566ZM109.896 250.566C111.114 250.566 112.101 251.551 112.101 252.766C112.101 253.981 111.114 254.966 109.896 254.966C108.678 254.966 107.69 253.981 107.69 252.766C107.69 251.551 108.678 250.566 109.896 250.566ZM126.068 250.566C127.286 250.566 128.274 251.551 128.274 252.766C128.274 253.981 127.286 254.966 126.068 254.966C124.85 254.966 123.863 253.981 123.863 252.766C123.863 251.551 124.85 250.566 126.068 250.566ZM142.241 250.566C143.459 250.566 144.446 251.551 144.446 252.766C144.446 253.981 143.459 254.966 142.241 254.966C141.023 254.966 140.036 253.981 140.036 252.766C140.036 251.551 141.023 250.566 142.241 250.566ZM158.414 250.566C159.632 250.566 160.619 251.551 160.619 252.766C160.619 253.981 159.632 254.966 158.414 254.966C157.196 254.966 156.208 253.981 156.208 252.766C156.208 251.551 157.196 250.566 158.414 250.566ZM174.586 250.566C175.804 250.566 176.792 251.551 176.792 252.766C176.792 253.981 175.804 254.966 174.586 254.966C173.368 254.966 172.381 253.981 172.381 252.766C172.381 251.551 173.368 250.566 174.586 250.566ZM87.8423 2.69951C87.8423 3.91454 86.8549 4.89951 85.6369 4.89951C84.4189 4.89951 83.4315 3.91454 83.4315 2.69951C83.4315 1.48449 84.4189 0.499512 85.6369 0.499512C86.8549 0.499512 87.8423 1.48449 87.8423 2.69951ZM87.8423 18.8328C87.8423 20.0479 86.8549 21.0328 85.6369 21.0328C84.4189 21.0328 83.4315 20.0479 83.4315 18.8328C83.4315 17.6178 84.4189 16.6328 85.6369 16.6328C86.8549 16.6328 87.8423 17.6178 87.8423 18.8328ZM87.8423 34.9662C87.8423 36.1812 86.8549 37.1662 85.6369 37.1662C84.4189 37.1662 83.4315 36.1812 83.4315 34.9662C83.4315 33.7512 84.4189 32.7662 85.6369 32.7662C86.8549 32.7662 87.8423 33.7512 87.8423 34.9662ZM87.8423 51.0995C87.8423 52.3145 86.8549 53.2995 85.6369 53.2995C84.4189 53.2995 83.4315 52.3145 83.4315 51.0995C83.4315 49.8845 84.4189 48.8995 85.6369 48.8995C86.8549 48.8995 87.8423 49.8845 87.8423 51.0995ZM87.8423 67.2328C87.8423 68.4479 86.8549 69.4328 85.6369 69.4328C84.4189 69.4328 83.4315 68.4479 83.4315 67.2328C83.4315 66.0178 84.4189 65.0328 85.6369 65.0328C86.8549 65.0328 87.8423 66.0178 87.8423 67.2328ZM87.8423 83.3662C87.8423 84.5812 86.8549 85.5662 85.6369 85.5662C84.4189 85.5662 83.4315 84.5812 83.4315 83.3662C83.4315 82.1512 84.4189 81.1662 85.6369 81.1662C86.8549 81.1662 87.8423 82.1512 87.8423 83.3662ZM87.8423 99.4995C87.8423 100.715 86.8549 101.7 85.6369 101.7C84.4189 101.7 83.4315 100.715 83.4315 99.4995C83.4315 98.2845 84.4189 97.2995 85.6369 97.2995C86.8549 97.2995 87.8423 98.2845 87.8423 99.4995ZM87.8423 115.633C87.8423 116.848 86.8549 117.833 85.6369 117.833C84.4189 117.833 83.4315 116.848 83.4315 115.633C83.4315 114.418 84.4189 113.433 85.6369 113.433C86.8549 113.433 87.8423 114.418 87.8423 115.633ZM87.8423 131.766C87.8423 132.981 86.8549 133.966 85.6369 133.966C84.4189 133.966 83.4315 132.981 83.4315 131.766C83.4315 130.551 84.4189 129.566 85.6369 129.566C86.8549 129.566 87.8423 130.551 87.8423 131.766ZM87.8423 147.9C87.8423 149.115 86.8549 150.1 85.6369 150.1C84.4189 150.1 83.4315 149.115 83.4315 147.9C83.4315 146.684 84.4189 145.7 85.6369 145.7C86.8549 145.7 87.8423 146.684 87.8423 147.9ZM87.8423 164.033C87.8423 165.248 86.8549 166.233 85.6369 166.233C84.4189 166.233 83.4315 165.248 83.4315 164.033C83.4315 162.818 84.4189 161.833 85.6369 161.833C86.8549 161.833 87.8423 162.818 87.8423 164.033ZM87.8423 180.166C87.8423 181.381 86.8549 182.366 85.6369 182.366C84.4189 182.366 83.4315 181.381 83.4315 180.166C83.4315 178.951 84.4189 177.966 85.6369 177.966C86.8549 177.966 87.8423 178.951 87.8423 180.166ZM87.8423 196.3C87.8423 197.515 86.8549 198.5 85.6369 198.5C84.4189 198.5 83.4315 197.515 83.4315 196.3C83.4315 195.084 84.4189 194.1 85.6369 194.1C86.8549 194.1 87.8423 195.084 87.8423 196.3ZM87.8423 212.433C87.8423 213.648 86.8549 214.633 85.6369 214.633C84.4189 214.633 83.4315 213.648 83.4315 212.433C83.4315 211.218 84.4189 210.233 85.6369 210.233C86.8549 210.233 87.8423 211.218 87.8423 212.433ZM104.015 99.4995C104.015 100.715 103.028 101.7 101.81 101.7C100.592 101.7 99.6042 100.715 99.6042 99.4995C99.6042 98.2845 100.592 97.2995 101.81 97.2995C103.028 97.2995 104.015 98.2845 104.015 99.4995ZM104.015 115.633C104.015 116.848 103.028 117.833 101.81 117.833C100.592 117.833 99.6042 116.848 99.6042 115.633C99.6042 114.418 100.592 113.433 101.81 113.433C103.028 113.433 104.015 114.418 104.015 115.633ZM104.015 131.766C104.015 132.981 103.028 133.966 101.81 133.966C100.592 133.966 99.6042 132.981 99.6042 131.766C99.6042 130.551 100.592 129.566 101.81 129.566C103.028 129.566 104.015 130.551 104.015 131.766ZM104.015 147.9C104.015 149.115 103.028 150.1 101.81 150.1C100.592 150.1 99.6042 149.115 99.6042 147.9C99.6042 146.684 100.592 145.7 101.81 145.7C103.028 145.7 104.015 146.684 104.015 147.9ZM104.015 2.69951C104.015 3.91454 103.028 4.89951 101.81 4.89951C100.592 4.89951 99.6042 3.91454 99.6042 2.69951C99.6042 1.48449 100.592 0.499512 101.81 0.499512C103.028 0.499512 104.015 1.48449 104.015 2.69951ZM104.015 34.9662C104.015 36.1812 103.028 37.1662 101.81 37.1662C100.592 37.1662 99.6042 36.1812 99.6042 34.9662C99.6042 33.7512 100.592 32.7662 101.81 32.7662C103.028 32.7662 104.015 33.7512 104.015 34.9662ZM104.015 67.2328C104.015 68.4479 103.028 69.4328 101.81 69.4328C100.592 69.4328 99.6042 68.4479 99.6042 67.2328C99.6042 66.0178 100.592 65.0328 101.81 65.0328C103.028 65.0328 104.015 66.0178 104.015 67.2328ZM104.015 83.3662C104.015 84.5812 103.028 85.5662 101.81 85.5662C100.592 85.5662 99.6042 84.5812 99.6042 83.3662C99.6042 82.1512 100.592 81.1662 101.81 81.1662C103.028 81.1662 104.015 82.1512 104.015 83.3662ZM104.015 180.166C104.015 181.381 103.028 182.366 101.81 182.366C100.592 182.366 99.6042 181.381 99.6042 180.166C99.6042 178.951 100.592 177.966 101.81 177.966C103.028 177.966 104.015 178.951 104.015 180.166ZM104.015 196.3C104.015 197.515 103.028 198.5 101.81 198.5C100.592 198.5 99.6042 197.515 99.6042 196.3C99.6042 195.084 100.592 194.1 101.81 194.1C103.028 194.1 104.015 195.084 104.015 196.3ZM104.015 18.8328C104.015 20.0479 103.028 21.0328 101.81 21.0328C100.592 21.0328 99.6042 20.0479 99.6042 18.8328C99.6042 17.6178 100.592 16.6328 101.81 16.6328C103.028 16.6328 104.015 17.6178 104.015 18.8328ZM104.015 212.433C104.015 213.648 103.028 214.633 101.81 214.633C100.592 214.633 99.6042 213.648 99.6042 212.433C99.6042 211.218 100.592 210.233 101.81 210.233C103.028 210.233 104.015 211.218 104.015 212.433ZM104.015 51.0995C104.015 52.3145 103.028 53.2995 101.81 53.2995C100.592 53.2995 99.6042 52.3145 99.6042 51.0995C99.6042 49.8845 100.592 48.8995 101.81 48.8995C103.028 48.8995 104.015 49.8845 104.015 51.0995ZM104.015 164.033C104.015 165.248 103.028 166.233 101.81 166.233C100.592 166.233 99.6042 165.248 99.6042 164.033C99.6042 162.818 100.592 161.833 101.81 161.833C103.028 161.833 104.015 162.818 104.015 164.033ZM120.188 2.69951C120.188 3.91454 119.2 4.89951 117.982 4.89951C116.764 4.89951 115.777 3.91454 115.777 2.69951C115.777 1.48449 116.764 0.499512 117.982 0.499512C119.2 0.499512 120.188 1.48449 120.188 2.69951ZM120.188 34.9662C120.188 36.1812 119.2 37.1662 117.982 37.1662C116.764 37.1662 115.777 36.1812 115.777 34.9662C115.777 33.7512 116.764 32.7662 117.982 32.7662C119.2 32.7662 120.188 33.7512 120.188 34.9662ZM120.188 51.0995C120.188 52.3145 119.2 53.2995 117.982 53.2995C116.764 53.2995 115.777 52.3145 115.777 51.0995C115.777 49.8845 116.764 48.8995 117.982 48.8995C119.2 48.8995 120.188 49.8845 120.188 51.0995ZM120.188 67.2328C120.188 68.4479 119.2 69.4328 117.982 69.4328C116.764 69.4328 115.777 68.4479 115.777 67.2328C115.777 66.0178 116.764 65.0328 117.982 65.0328C119.2 65.0328 120.188 66.0178 120.188 67.2328ZM120.188 83.3662C120.188 84.5812 119.2 85.5662 117.982 85.5662C116.764 85.5662 115.777 84.5812 115.777 83.3662C115.777 82.1512 116.764 81.1662 117.982 81.1662C119.2 81.1662 120.188 82.1512 120.188 83.3662ZM120.188 18.8328C120.188 20.0479 119.2 21.0328 117.982 21.0328C116.764 21.0328 115.777 20.0479 115.777 18.8328C115.777 17.6178 116.764 16.6328 117.982 16.6328C119.2 16.6328 120.188 17.6178 120.188 18.8328ZM120.188 99.4995C120.188 100.715 119.2 101.7 117.982 101.7C116.764 101.7 115.777 100.715 115.777 99.4995C115.777 98.2845 116.764 97.2995 117.982 97.2995C119.2 97.2995 120.188 98.2845 120.188 99.4995ZM120.188 115.633C120.188 116.848 119.2 117.833 117.982 117.833C116.764 117.833 115.777 116.848 115.777 115.633C115.777 114.418 116.764 113.433 117.982 113.433C119.2 113.433 120.188 114.418 120.188 115.633ZM120.188 131.766C120.188 132.981 119.2 133.966 117.982 133.966C116.764 133.966 115.777 132.981 115.777 131.766C115.777 130.551 116.764 129.566 117.982 129.566C119.2 129.566 120.188 130.551 120.188 131.766ZM120.188 147.9C120.188 149.115 119.2 150.1 117.982 150.1C116.764 150.1 115.777 149.115 115.777 147.9C115.777 146.684 116.764 145.7 117.982 145.7C119.2 145.7 120.188 146.684 120.188 147.9ZM120.188 164.033C120.188 165.248 119.2 166.233 117.982 166.233C116.764 166.233 115.777 165.248 115.777 164.033C115.777 162.818 116.764 161.833 117.982 161.833C119.2 161.833 120.188 162.818 120.188 164.033ZM120.188 180.166C120.188 181.381 119.2 182.366 117.982 182.366C116.764 182.366 115.777 181.381 115.777 180.166C115.777 178.951 116.764 177.966 117.982 177.966C119.2 177.966 120.188 178.951 120.188 180.166ZM120.188 196.3C120.188 197.515 119.2 198.5 117.982 198.5C116.764 198.5 115.777 197.515 115.777 196.3C115.777 195.084 116.764 194.1 117.982 194.1C119.2 194.1 120.188 195.084 120.188 196.3ZM120.188 212.433C120.188 213.648 119.2 214.633 117.982 214.633C116.764 214.633 115.777 213.648 115.777 212.433C115.777 211.218 116.764 210.233 117.982 210.233C119.2 210.233 120.188 211.218 120.188 212.433ZM136.36 2.69951C136.36 3.91454 135.373 4.89951 134.155 4.89951C132.937 4.89951 131.949 3.91454 131.949 2.69951C131.949 1.48449 132.937 0.499512 134.155 0.499512C135.373 0.499512 136.36 1.48449 136.36 2.69951ZM136.36 18.8328C136.36 20.0479 135.373 21.0328 134.155 21.0328C132.937 21.0328 131.949 20.0479 131.949 18.8328C131.949 17.6178 132.937 16.6328 134.155 16.6328C135.373 16.6328 136.36 17.6178 136.36 18.8328ZM136.36 34.9662C136.36 36.1812 135.373 37.1662 134.155 37.1662C132.937 37.1662 131.949 36.1812 131.949 34.9662C131.949 33.7512 132.937 32.7662 134.155 32.7662C135.373 32.7662 136.36 33.7512 136.36 34.9662ZM136.36 51.0995C136.36 52.3145 135.373 53.2995 134.155 53.2995C132.937 53.2995 131.949 52.3145 131.949 51.0995C131.949 49.8845 132.937 48.8995 134.155 48.8995C135.373 48.8995 136.36 49.8845 136.36 51.0995ZM136.36 67.2328C136.36 68.4479 135.373 69.4328 134.155 69.4328C132.937 69.4328 131.949 68.4479 131.949 67.2328C131.949 66.0178 132.937 65.0328 134.155 65.0328C135.373 65.0328 136.36 66.0178 136.36 67.2328ZM136.36 83.3662C136.36 84.5812 135.373 85.5662 134.155 85.5662C132.937 85.5662 131.949 84.5812 131.949 83.3662C131.949 82.1512 132.937 81.1662 134.155 81.1662C135.373 81.1662 136.36 82.1512 136.36 83.3662ZM136.36 99.4995C136.36 100.715 135.373 101.7 134.155 101.7C132.937 101.7 131.949 100.715 131.949 99.4995C131.949 98.2845 132.937 97.2995 134.155 97.2995C135.373 97.2995 136.36 98.2845 136.36 99.4995ZM136.36 115.633C136.36 116.848 135.373 117.833 134.155 117.833C132.937 117.833 131.949 116.848 131.949 115.633C131.949 114.418 132.937 113.433 134.155 113.433C135.373 113.433 136.36 114.418 136.36 115.633ZM136.36 131.766C136.36 132.981 135.373 133.966 134.155 133.966C132.937 133.966 131.949 132.981 131.949 131.766C131.949 130.551 132.937 129.566 134.155 129.566C135.373 129.566 136.36 130.551 136.36 131.766ZM136.36 147.9C136.36 149.115 135.373 150.1 134.155 150.1C132.937 150.1 131.949 149.115 131.949 147.9C131.949 146.684 132.937 145.7 134.155 145.7C135.373 145.7 136.36 146.684 136.36 147.9ZM136.36 164.033C136.36 165.248 135.373 166.233 134.155 166.233C132.937 166.233 131.949 165.248 131.949 164.033C131.949 162.818 132.937 161.833 134.155 161.833C135.373 161.833 136.36 162.818 136.36 164.033ZM136.36 180.166C136.36 181.381 135.373 182.366 134.155 182.366C132.937 182.366 131.949 181.381 131.949 180.166C131.949 178.951 132.937 177.966 134.155 177.966C135.373 177.966 136.36 178.951 136.36 180.166ZM136.36 196.3C136.36 197.515 135.373 198.5 134.155 198.5C132.937 198.5 131.949 197.515 131.949 196.3C131.949 195.084 132.937 194.1 134.155 194.1C135.373 194.1 136.36 195.084 136.36 196.3ZM136.36 212.433C136.36 213.648 135.373 214.633 134.155 214.633C132.937 214.633 131.949 213.648 131.949 212.433C131.949 211.218 132.937 210.233 134.155 210.233C135.373 210.233 136.36 211.218 136.36 212.433ZM152.533 2.69951C152.533 3.91454 151.545 4.89951 150.327 4.89951C149.109 4.89951 148.122 3.91454 148.122 2.69951C148.122 1.48449 149.109 0.499512 150.327 0.499512C151.545 0.499512 152.533 1.48449 152.533 2.69951ZM152.533 18.8328C152.533 20.0479 151.545 21.0328 150.327 21.0328C149.109 21.0328 148.122 20.0479 148.122 18.8328C148.122 17.6178 149.109 16.6328 150.327 16.6328C151.545 16.6328 152.533 17.6178 152.533 18.8328ZM152.533 34.9662C152.533 36.1812 151.545 37.1662 150.327 37.1662C149.109 37.1662 148.122 36.1812 148.122 34.9662C148.122 33.7512 149.109 32.7662 150.327 32.7662C151.545 32.7662 152.533 33.7512 152.533 34.9662ZM152.533 51.0995C152.533 52.3145 151.545 53.2995 150.327 53.2995C149.109 53.2995 148.122 52.3145 148.122 51.0995C148.122 49.8845 149.109 48.8995 150.327 48.8995C151.545 48.8995 152.533 49.8845 152.533 51.0995ZM152.533 67.2328C152.533 68.4479 151.545 69.4328 150.327 69.4328C149.109 69.4328 148.122 68.4479 148.122 67.2328C148.122 66.0178 149.109 65.0328 150.327 65.0328C151.545 65.0328 152.533 66.0178 152.533 67.2328ZM152.533 83.3662C152.533 84.5812 151.545 85.5662 150.327 85.5662C149.109 85.5662 148.122 84.5812 148.122 83.3662C148.122 82.1512 149.109 81.1662 150.327 81.1662C151.545 81.1662 152.533 82.1512 152.533 83.3662ZM152.533 99.4995C152.533 100.715 151.545 101.7 150.327 101.7C149.109 101.7 148.122 100.715 148.122 99.4995C148.122 98.2845 149.109 97.2995 150.327 97.2995C151.545 97.2995 152.533 98.2845 152.533 99.4995ZM152.533 115.633C152.533 116.848 151.545 117.833 150.327 117.833C149.109 117.833 148.122 116.848 148.122 115.633C148.122 114.418 149.109 113.433 150.327 113.433C151.545 113.433 152.533 114.418 152.533 115.633ZM152.533 131.766C152.533 132.981 151.545 133.966 150.327 133.966C149.109 133.966 148.122 132.981 148.122 131.766C148.122 130.551 149.109 129.566 150.327 129.566C151.545 129.566 152.533 130.551 152.533 131.766ZM152.533 147.9C152.533 149.115 151.545 150.1 150.327 150.1C149.109 150.1 148.122 149.115 148.122 147.9C148.122 146.684 149.109 145.7 150.327 145.7C151.545 145.7 152.533 146.684 152.533 147.9ZM152.533 164.033C152.533 165.248 151.545 166.233 150.327 166.233C149.109 166.233 148.122 165.248 148.122 164.033C148.122 162.818 149.109 161.833 150.327 161.833C151.545 161.833 152.533 162.818 152.533 164.033ZM152.533 180.166C152.533 181.381 151.545 182.366 150.327 182.366C149.109 182.366 148.122 181.381 148.122 180.166C148.122 178.951 149.109 177.966 150.327 177.966C151.545 177.966 152.533 178.951 152.533 180.166ZM152.533 196.3C152.533 197.515 151.545 198.5 150.327 198.5C149.109 198.5 148.122 197.515 148.122 196.3C148.122 195.084 149.109 194.1 150.327 194.1C151.545 194.1 152.533 195.084 152.533 196.3ZM152.533 212.433C152.533 213.648 151.545 214.633 150.327 214.633C149.109 214.633 148.122 213.648 148.122 212.433C148.122 211.218 149.109 210.233 150.327 210.233C151.545 210.233 152.533 211.218 152.533 212.433ZM168.705 2.69951C168.705 3.91454 167.718 4.89951 166.5 4.89951C165.282 4.89951 164.295 3.91454 164.295 2.69951C164.295 1.48449 165.282 0.499512 166.5 0.499512C167.718 0.499512 168.705 1.48449 168.705 2.69951ZM168.705 18.8328C168.705 20.0479 167.718 21.0328 166.5 21.0328C165.282 21.0328 164.295 20.0479 164.295 18.8328C164.295 17.6178 165.282 16.6328 166.5 16.6328C167.718 16.6328 168.705 17.6178 168.705 18.8328ZM168.705 34.9662C168.705 36.1812 167.718 37.1662 166.5 37.1662C165.282 37.1662 164.295 36.1812 164.295 34.9662C164.295 33.7512 165.282 32.7662 166.5 32.7662C167.718 32.7662 168.705 33.7512 168.705 34.9662ZM168.705 51.0995C168.705 52.3145 167.718 53.2995 166.5 53.2995C165.282 53.2995 164.295 52.3145 164.295 51.0995C164.295 49.8845 165.282 48.8995 166.5 48.8995C167.718 48.8995 168.705 49.8845 168.705 51.0995ZM168.705 67.2328C168.705 68.4479 167.718 69.4328 166.5 69.4328C165.282 69.4328 164.295 68.4479 164.295 67.2328C164.295 66.0178 165.282 65.0328 166.5 65.0328C167.718 65.0328 168.705 66.0178 168.705 67.2328ZM168.705 83.3662C168.705 84.5812 167.718 85.5662 166.5 85.5662C165.282 85.5662 164.295 84.5812 164.295 83.3662C164.295 82.1512 165.282 81.1662 166.5 81.1662C167.718 81.1662 168.705 82.1512 168.705 83.3662ZM168.705 99.4995C168.705 100.715 167.718 101.7 166.5 101.7C165.282 101.7 164.295 100.715 164.295 99.4995C164.295 98.2845 165.282 97.2995 166.5 97.2995C167.718 97.2995 168.705 98.2845 168.705 99.4995ZM168.705 115.633C168.705 116.848 167.718 117.833 166.5 117.833C165.282 117.833 164.295 116.848 164.295 115.633C164.295 114.418 165.282 113.433 166.5 113.433C167.718 113.433 168.705 114.418 168.705 115.633ZM168.705 131.766C168.705 132.981 167.718 133.966 166.5 133.966C165.282 133.966 164.295 132.981 164.295 131.766C164.295 130.551 165.282 129.566 166.5 129.566C167.718 129.566 168.705 130.551 168.705 131.766ZM168.705 147.9C168.705 149.115 167.718 150.1 166.5 150.1C165.282 150.1 164.295 149.115 164.295 147.9C164.295 146.684 165.282 145.7 166.5 145.7C167.718 145.7 168.705 146.684 168.705 147.9ZM168.705 164.033C168.705 165.248 167.718 166.233 166.5 166.233C165.282 166.233 164.295 165.248 164.295 164.033C164.295 162.818 165.282 161.833 166.5 161.833C167.718 161.833 168.705 162.818 168.705 164.033ZM168.705 180.166C168.705 181.381 167.718 182.366 166.5 182.366C165.282 182.366 164.295 181.381 164.295 180.166C164.295 178.951 165.282 177.966 166.5 177.966C167.718 177.966 168.705 178.951 168.705 180.166ZM168.705 196.3C168.705 197.515 167.718 198.5 166.5 198.5C165.282 198.5 164.295 197.515 164.295 196.3C164.295 195.084 165.282 194.1 166.5 194.1C167.718 194.1 168.705 195.084 168.705 196.3ZM168.705 212.433C168.705 213.648 167.718 214.633 166.5 214.633C165.282 214.633 164.295 213.648 164.295 212.433C164.295 211.218 165.282 210.233 166.5 210.233C167.718 210.233 168.705 211.218 168.705 212.433ZM184.878 2.69951C184.878 3.91454 183.891 4.89951 182.673 4.89951C181.455 4.89951 180.467 3.91454 180.467 2.69951C180.467 1.48449 181.455 0.499512 182.673 0.499512C183.891 0.499512 184.878 1.48449 184.878 2.69951ZM184.878 18.8328C184.878 20.0479 183.891 21.0328 182.673 21.0328C181.455 21.0328 180.467 20.0479 180.467 18.8328C180.467 17.6178 181.455 16.6328 182.673 16.6328C183.891 16.6328 184.878 17.6178 184.878 18.8328ZM184.878 34.9662C184.878 36.1812 183.891 37.1662 182.673 37.1662C181.455 37.1662 180.467 36.1812 180.467 34.9662C180.467 33.7512 181.455 32.7662 182.673 32.7662C183.891 32.7662 184.878 33.7512 184.878 34.9662ZM184.878 51.0995C184.878 52.3145 183.891 53.2995 182.673 53.2995C181.455 53.2995 180.467 52.3145 180.467 51.0995C180.467 49.8845 181.455 48.8995 182.673 48.8995C183.891 48.8995 184.878 49.8845 184.878 51.0995ZM184.878 67.2328C184.878 68.4479 183.891 69.4328 182.673 69.4328C181.455 69.4328 180.467 68.4479 180.467 67.2328C180.467 66.0178 181.455 65.0328 182.673 65.0328C183.891 65.0328 184.878 66.0178 184.878 67.2328ZM184.878 83.3662C184.878 84.5812 183.891 85.5662 182.673 85.5662C181.455 85.5662 180.467 84.5812 180.467 83.3662C180.467 82.1512 181.455 81.1662 182.673 81.1662C183.891 81.1662 184.878 82.1512 184.878 83.3662ZM184.878 99.4995C184.878 100.715 183.891 101.7 182.673 101.7C181.455 101.7 180.467 100.715 180.467 99.4995C180.467 98.2845 181.455 97.2995 182.673 97.2995C183.891 97.2995 184.878 98.2845 184.878 99.4995ZM184.878 115.633C184.878 116.848 183.891 117.833 182.673 117.833C181.455 117.833 180.467 116.848 180.467 115.633C180.467 114.418 181.455 113.433 182.673 113.433C183.891 113.433 184.878 114.418 184.878 115.633ZM184.878 131.766C184.878 132.981 183.891 133.966 182.673 133.966C181.455 133.966 180.467 132.981 180.467 131.766C180.467 130.551 181.455 129.566 182.673 129.566C183.891 129.566 184.878 130.551 184.878 131.766ZM184.878 147.9C184.878 149.115 183.891 150.1 182.673 150.1C181.455 150.1 180.467 149.115 180.467 147.9C180.467 146.684 181.455 145.7 182.673 145.7C183.891 145.7 184.878 146.684 184.878 147.9ZM184.878 164.033C184.878 165.248 183.891 166.233 182.673 166.233C181.455 166.233 180.467 165.248 180.467 164.033C180.467 162.818 181.455 161.833 182.673 161.833C183.891 161.833 184.878 162.818 184.878 164.033ZM184.878 180.166C184.878 181.381 183.891 182.366 182.673 182.366C181.455 182.366 180.467 181.381 180.467 180.166C180.467 178.951 181.455 177.966 182.673 177.966C183.891 177.966 184.878 178.951 184.878 180.166ZM184.878 196.3C184.878 197.515 183.891 198.5 182.673 198.5C181.455 198.5 180.467 197.515 180.467 196.3C180.467 195.084 181.455 194.1 182.673 194.1C183.891 194.1 184.878 195.084 184.878 196.3ZM184.878 212.433C184.878 213.648 183.891 214.633 182.673 214.633C181.455 214.633 180.467 213.648 180.467 212.433C180.467 211.218 181.455 210.233 182.673 210.233C183.891 210.233 184.878 211.218 184.878 212.433ZM201.051 2.69951C201.051 3.91454 200.063 4.89951 198.845 4.89951C197.627 4.89951 196.64 3.91454 196.64 2.69951C196.64 1.48449 197.627 0.499512 198.845 0.499512C200.063 0.499512 201.051 1.48449 201.051 2.69951ZM201.051 18.8328C201.051 20.0479 200.063 21.0328 198.845 21.0328C197.627 21.0328 196.64 20.0479 196.64 18.8328C196.64 17.6178 197.627 16.6328 198.845 16.6328C200.063 16.6328 201.051 17.6178 201.051 18.8328ZM201.051 34.9662C201.051 36.1812 200.063 37.1662 198.845 37.1662C197.627 37.1662 196.64 36.1812 196.64 34.9662C196.64 33.7512 197.627 32.7662 198.845 32.7662C200.063 32.7662 201.051 33.7512 201.051 34.9662ZM201.051 51.0995C201.051 52.3145 200.063 53.2995 198.845 53.2995C197.627 53.2995 196.64 52.3145 196.64 51.0995C196.64 49.8845 197.627 48.8995 198.845 48.8995C200.063 48.8995 201.051 49.8845 201.051 51.0995ZM201.051 67.2328C201.051 68.4479 200.063 69.4328 198.845 69.4328C197.627 69.4328 196.64 68.4479 196.64 67.2328C196.64 66.0178 197.627 65.0328 198.845 65.0328C200.063 65.0328 201.051 66.0178 201.051 67.2328ZM201.051 83.3662C201.051 84.5812 200.063 85.5662 198.845 85.5662C197.627 85.5662 196.64 84.5812 196.64 83.3662C196.64 82.1512 197.627 81.1662 198.845 81.1662C200.063 81.1662 201.051 82.1512 201.051 83.3662ZM201.051 99.4995C201.051 100.715 200.063 101.7 198.845 101.7C197.627 101.7 196.64 100.715 196.64 99.4995C196.64 98.2845 197.627 97.2995 198.845 97.2995C200.063 97.2995 201.051 98.2845 201.051 99.4995ZM201.051 115.633C201.051 116.848 200.063 117.833 198.845 117.833C197.627 117.833 196.64 116.848 196.64 115.633C196.64 114.418 197.627 113.433 198.845 113.433C200.063 113.433 201.051 114.418 201.051 115.633ZM201.051 131.766C201.051 132.981 200.063 133.966 198.845 133.966C197.627 133.966 196.64 132.981 196.64 131.766C196.64 130.551 197.627 129.566 198.845 129.566C200.063 129.566 201.051 130.551 201.051 131.766ZM201.051 147.9C201.051 149.115 200.063 150.1 198.845 150.1C197.627 150.1 196.64 149.115 196.64 147.9C196.64 146.684 197.627 145.7 198.845 145.7C200.063 145.7 201.051 146.684 201.051 147.9ZM201.051 164.033C201.051 165.248 200.063 166.233 198.845 166.233C197.627 166.233 196.64 165.248 196.64 164.033C196.64 162.818 197.627 161.833 198.845 161.833C200.063 161.833 201.051 162.818 201.051 164.033ZM201.051 180.166C201.051 181.381 200.063 182.366 198.845 182.366C197.627 182.366 196.64 181.381 196.64 180.166C196.64 178.951 197.627 177.966 198.845 177.966C200.063 177.966 201.051 178.951 201.051 180.166ZM201.051 196.3C201.051 197.515 200.063 198.5 198.845 198.5C197.627 198.5 196.64 197.515 196.64 196.3C196.64 195.084 197.627 194.1 198.845 194.1C200.063 194.1 201.051 195.084 201.051 196.3ZM201.051 212.433C201.051 213.648 200.063 214.633 198.845 214.633C197.627 214.633 196.64 213.648 196.64 212.433C196.64 211.218 197.627 210.233 198.845 210.233C200.063 210.233 201.051 211.218 201.051 212.433Z" fill="#F6F6F6"/>
<path fill-rule="evenodd" clip-rule="evenodd" d="M236.941 59.6502C265.169 71.5339 285.034 99.8452 289.843 129.38C294.652 158.914 284.197 189.672 263.497 211.518C242.796 233.363 211.849 246.47 180.066 255.208C148.074 264.121 115.245 268.664 90.1534 259.402C65.0615 250.14 47.7063 226.897 32.6512 203.304C17.596 179.886 4.84098 156.118 10.2776 135.846C15.9232 115.574 39.5514 98.9714 63.3887 86.5634C87.2261 74.1553 110.854 65.7668 141.174 59.3006C171.493 52.6597 208.504 47.9412 236.941 59.6502Z" fill="#F6F6F6"/>
<path fill-rule="evenodd" clip-rule="evenodd" d="M13.4062 250.171C14.483 250.171 15.4594 250.61 16.1666 251.319C16.8741 252.027 17.3125 253.006 17.3125 254.085C17.3125 255.164 16.874 256.143 16.1665 256.852C15.4593 257.56 14.483 258 13.4062 258C12.3295 258 11.3532 257.56 10.646 256.852C9.93845 256.143 9.5 255.164 9.5 254.085C9.5 253.006 9.93837 252.027 10.6459 251.319C11.3531 250.61 12.3295 250.171 13.4062 250.171ZM13.4062 250.498C12.4188 250.498 11.5231 250.9 10.8743 251.55C10.226 252.2 9.82459 253.096 9.82459 254.085C9.82459 255.074 10.226 255.971 10.8743 256.62C11.5231 257.27 12.4188 257.673 13.4062 257.673C14.3939 257.673 15.2896 257.27 15.9382 256.621C16.5866 255.971 16.9879 255.074 16.9879 254.085C16.9879 253.096 16.5866 252.199 15.9382 251.55C15.2896 250.9 14.3939 250.498 13.4062 250.498ZM241.73 198.671C241.807 198.671 241.883 198.7 241.943 198.76C242.002 198.819 242.031 198.896 242.031 198.974C242.031 199.051 242.002 199.129 241.942 199.188L238.551 202.585L241.942 205.982C242.002 206.041 242.031 206.119 242.031 206.197C242.031 206.274 242.002 206.352 241.942 206.411C241.884 206.47 241.807 206.5 241.73 206.5C241.653 206.5 241.576 206.47 241.517 206.411L238.125 203.012L234.733 206.411C234.674 206.47 234.597 206.5 234.52 206.5C234.443 206.5 234.366 206.47 234.308 206.411C234.248 206.352 234.219 206.274 234.219 206.197C234.219 206.119 234.248 206.041 234.308 205.982L237.698 202.585L234.308 199.189C234.248 199.129 234.219 199.051 234.219 198.974C234.219 198.896 234.248 198.819 234.308 198.759C234.367 198.7 234.443 198.671 234.52 198.671L238.125 202.157L241.517 198.76C241.576 198.701 241.653 198.671 241.73 198.671ZM65.4796 189.842C65.5568 189.842 65.6338 189.872 65.6927 189.931C65.7517 189.99 65.781 190.068 65.781 190.145C65.781 190.223 65.7514 190.301 65.6927 190.36L62.3012 193.756L65.6923 197.154C65.7515 197.213 65.7812 197.29 65.7812 197.368C65.7812 197.446 65.7515 197.523 65.6923 197.582C65.6337 197.641 65.5567 197.671 65.4796 197.671C65.4026 197.671 65.3256 197.641 65.2669 197.582L61.8747 194.184L58.4831 197.582C58.4244 197.641 58.3474 197.671 58.2704 197.671C58.1933 197.671 58.1163 197.641 58.0577 197.582C57.9985 197.523 57.9688 197.446 57.9688 197.368C57.9688 197.29 57.9985 197.213 58.0577 197.154L61.4482 193.756L58.0578 190.36C57.9986 190.301 57.969 190.223 57.969 190.145C57.969 190.068 57.9983 189.99 58.0573 189.931C58.1162 189.872 58.1932 189.842 58.2704 189.842L61.8747 193.329L65.2677 189.931C65.3262 189.872 65.4029 189.842 65.4796 189.842ZM238.125 114.8C239.202 114.8 240.178 115.239 240.885 115.947C241.593 116.656 242.031 117.634 242.031 118.713C242.031 119.793 241.593 120.772 240.885 121.48C240.178 122.189 239.202 122.628 238.125 122.628C237.048 122.628 236.072 122.189 235.365 121.48C234.657 120.772 234.219 119.793 234.219 118.713C234.219 117.634 234.657 116.656 235.365 115.947C236.072 115.239 237.048 114.8 238.125 114.8ZM238.125 115.126C237.137 115.126 236.242 115.529 235.593 116.178C234.945 116.828 234.543 117.725 234.543 118.713C234.543 119.702 234.945 120.599 235.593 121.249C236.242 121.899 237.137 122.301 238.125 122.301C239.112 122.301 240.008 121.899 240.657 121.249C241.305 120.599 241.707 119.702 241.707 118.713C241.707 117.725 241.305 116.828 240.657 116.178C240.008 115.529 239.112 115.126 238.125 115.126ZM290.199 52.9995C290.276 52.9995 290.352 53.0289 290.411 53.0876C290.47 53.1469 290.5 53.2246 290.5 53.3023C290.5 53.3797 290.47 53.4571 290.411 53.5165L287.02 56.9135L290.411 60.3107C290.47 60.37 290.5 60.4476 290.5 60.5252C290.5 60.6028 290.47 60.6803 290.411 60.7396C290.352 60.7984 290.275 60.8281 290.198 60.8281C290.121 60.8281 290.044 60.7984 289.986 60.7396L286.593 57.3407L283.202 60.7396C283.143 60.7984 283.066 60.8281 282.989 60.8281C282.912 60.8281 282.835 60.7984 282.776 60.7396C282.717 60.6803 282.688 60.6028 282.688 60.5252C282.688 60.4476 282.717 60.37 282.776 60.3107L286.167 56.9135L282.776 53.516C282.717 53.4571 282.688 53.3797 282.688 53.3023C282.688 53.2246 282.717 53.1469 282.776 53.0876C282.835 53.0289 282.912 52.9995 282.989 52.9995L286.593 56.4852L289.985 53.088C290.044 53.0291 290.121 52.9995 290.199 52.9995ZM64.4548 53.9715C65.2642 54.6841 65.7086 55.6604 65.7731 56.661C65.8375 57.6615 65.5221 58.6867 64.8107 59.4974C64.1251 60.2791 63.1777 60.7485 62.1415 60.8189C60.9344 60.8244 60.0213 60.4914 59.2972 59.8531C58.5131 59.1634 58.0446 58.2089 57.977 57.1647C57.9101 56.1213 58.2524 55.1138 58.9422 54.328C59.653 53.5174 60.6267 53.0723 61.6248 53.0077C62.623 52.9432 63.6457 53.2592 64.4548 53.9715ZM61.8781 53.3264C60.8827 53.3264 59.8921 53.7385 59.1847 54.5444C58.5535 55.2647 58.2395 56.1875 58.3018 57.1443C58.3634 58.0999 58.7929 58.9749 59.5109 59.6071C60.2305 60.2408 61.1545 60.558 62.1081 60.4932C63.0618 60.4316 63.9356 60.0005 64.5669 59.2809C65.2186 58.5382 65.5083 57.5992 65.4493 56.6823C65.3904 55.7654 64.9829 54.8711 64.2414 54.2177C63.5619 53.6203 62.7181 53.3264 61.8781 53.3264Z" stroke="#E5E5E5"/>
<path fill-rule="evenodd" clip-rule="evenodd" d="M255 49.25C252.932 49.25 251.25 47.5678 251.25 45.5C251.25 43.4321 252.932 41.75 255 41.75C257.068 41.75 258.75 43.4321 258.75 45.5C258.75 47.5678 257.068 49.25 255 49.25ZM153.75 285.5C151.682 285.5 150 283.818 150 281.75C150 279.682 151.682 278 153.75 278C155.818 278 157.5 279.682 157.5 281.75C157.5 283.818 155.818 285.5 153.75 285.5ZM56.25 38C54.1822 38 52.5 36.3178 52.5 34.25C52.5 32.1821 54.1822 30.5 56.25 30.5C58.3178 30.5 60 32.1821 60 34.25C60 36.3178 58.3178 38 56.25 38Z" fill="#CACAFB"/>
<path fill-rule="evenodd" clip-rule="evenodd" d="M198.75 165.5C200.821 165.5 202.5 167.179 202.5 169.25V206.75C202.5 208.821 200.821 210.5 198.75 210.5H161.25C159.179 210.5 157.5 208.821 157.5 206.75V169.25C157.5 167.179 159.179 165.5 161.25 165.5H198.75ZM176.25 191.75H165V203H176.25V191.75ZM195 191.75H183.75V203H195V191.75ZM176.25 173H165V184.25H176.25V173ZM195 173H183.75V184.25H195V173ZM168.75 120.5C170.821 120.5 172.5 122.179 172.5 124.25C172.5 126.321 170.821 128 168.75 128H131.25C129.179 128 127.5 126.321 127.5 124.25C127.5 122.179 129.179 120.5 131.25 120.5H168.75Z" fill="#E1000F"/>
<path fill-rule="evenodd" clip-rule="evenodd" d="M108.75 68C110.821 68 112.5 69.6789 112.5 71.75C112.5 73.8211 110.821 75.5 108.75 75.5H82.5V83H93.75C95.6731 83 97.2582 84.4477 97.4748 86.3127L97.5 86.75C97.5 88.8211 95.8211 90.5 93.75 90.5H90V100.708L148.35 72.1323L148.754 71.9626C148.817 71.9413 148.849 71.9307 148.882 71.9206C149.252 71.8042 149.628 71.749 149.999 71.7492C150.372 71.749 150.748 71.8042 151.115 71.9191L151.166 71.9359L151.246 71.9626L151.65 72.1323L243.524 117.132C245.347 118.025 246.128 120.205 245.289 122.052L235.914 142.677C235.023 144.636 232.67 145.445 230.763 144.448L225 141.436V159.765C225 161.836 223.321 163.515 221.25 163.515C219.179 163.515 217.5 161.836 217.5 159.765V137.934L150 102.241L82.5 137.93V225.5H97.5V169.25C97.5 167.179 99.1789 165.5 101.25 165.5H138.75C140.821 165.5 142.5 167.179 142.5 169.25V225.5H183.75C185.821 225.5 187.5 227.179 187.5 229.25C187.5 231.321 185.821 233 183.75 233H33.75C31.6789 233 30 231.321 30 229.25C30 227.179 31.6789 225.5 33.75 225.5H45L45.0013 217.764C35.304 216.482 30 210.007 30 199.25C30 188.52 35.1554 173.054 45.3959 152.573L45.4463 152.473L45.5475 152.296L45.6825 152.092C45.725 152.031 45.7698 151.971 45.8165 151.913C45.8629 151.854 45.9109 151.798 45.9604 151.742C46.0036 151.694 46.0495 151.646 46.0968 151.598C46.1458 151.55 46.1943 151.504 46.2438 151.459C46.2976 151.411 46.3544 151.363 46.4128 151.316L46.5922 151.182L46.7925 151.047L47.073 150.896L47.1171 150.874C47.1974 150.835 47.2798 150.799 47.3634 150.766L47.4395 150.736L47.5165 150.708C47.5776 150.687 47.6373 150.668 47.6975 150.651C47.7797 150.626 47.8627 150.605 47.946 150.586L48.02 150.572C48.2527 150.525 48.4862 150.501 48.7185 150.499H48.7815C48.9201 150.5 49.0592 150.509 49.1981 150.526L49.48 150.572L49.5544 150.587C49.6373 150.605 49.7203 150.626 49.803 150.65L49.8925 150.678L49.9817 150.708C50.035 150.726 50.0863 150.745 50.1374 150.766C50.2202 150.799 50.3026 150.835 50.3836 150.874L50.427 150.896L50.7 151.047L50.908 151.183C50.9689 151.225 51.0288 151.27 51.0875 151.316C51.1456 151.363 51.2024 151.411 51.2575 151.46C51.3057 151.504 51.3542 151.55 51.4016 151.597C51.4505 151.646 51.4964 151.694 51.5409 151.744C51.5891 151.798 51.6371 151.854 51.6836 151.913L51.8178 152.092L51.9487 152.293L52.05 152.473L52.1041 152.573C62.3446 173.054 67.5 188.52 67.5 199.25C67.5 210.006 62.1974 216.48 52.5025 217.764L52.5 225.5H75V141.436L69.2372 144.448C67.3299 145.445 64.9767 144.636 64.0861 142.677L54.7111 122.052C53.8715 120.205 54.6533 118.025 56.4755 117.132L83.2584 104.011C82.7824 103.383 82.5 102.599 82.5 101.75V90.5H78.75C76.6789 90.5 75 88.8211 75 86.75V71.75C75 69.6789 76.6789 68 78.75 68H108.75ZM243.971 173.006C244.856 173.058 245.726 173.422 246.402 174.098C252.183 179.879 255 188.331 255 199.25C255 208.951 252.655 215.369 247.504 217.35L247.5 225.5H258.75C260.821 225.5 262.5 227.179 262.5 229.25C262.5 231.321 260.821 233 258.75 233H206.25C204.179 233 202.5 231.321 202.5 229.25C202.5 227.179 204.179 225.5 206.25 225.5H217.5V184.25C217.5 182.179 219.179 180.5 221.25 180.5C223.321 180.5 225 182.179 225 184.25V225.5H240L240 217.351C234.846 215.372 232.5 208.953 232.5 199.25C232.5 188.331 235.317 179.879 241.098 174.098C241.774 173.422 242.644 173.058 243.529 173.006H243.971ZM135 173H105V225.5H135V173ZM243.753 182.796L243.622 183.006C241.228 187.053 240 192.439 240 199.25C240 207.129 241.412 210.257 243.497 210.486L243.75 210.5L244.003 210.486C246.088 210.257 247.5 207.129 247.5 199.25C247.5 192.321 246.229 186.866 243.753 182.796ZM48.7495 162.85L48.0062 164.455C40.9877 179.729 37.5 191.384 37.5 199.25C37.5 207.179 40.8211 210.5 48.75 210.5L49.5276 210.489C56.8966 210.273 60 206.915 60 199.25C60 191.111 56.2657 178.915 48.7495 162.85ZM123.75 188C125.821 188 127.5 189.679 127.5 191.75V199.25C127.5 201.321 125.821 203 123.75 203C121.679 203 120 201.321 120 199.25V191.75C120 189.679 121.679 188 123.75 188ZM149.996 79.6738L63.045 122.263L69.27 135.961L148.263 94.6767L148.405 94.6058L148.466 94.5762L148.514 94.5567L148.552 94.5387L148.77 94.4569C148.837 94.4342 148.903 94.4132 148.97 94.3941C149.003 94.3841 149.037 94.3748 149.071 94.3661L149.198 94.3367C149.257 94.3236 149.317 94.312 149.377 94.3018C149.427 94.2927 149.475 94.2856 149.522 94.2795L149.61 94.27C149.667 94.2639 149.725 94.2591 149.783 94.2557L149.843 94.2525L150.099 94.2505L150.187 94.2541C150.259 94.2577 150.33 94.2634 150.402 94.2712C150.416 94.2731 150.434 94.2751 150.451 94.2772C150.523 94.2853 150.572 94.2925 150.621 94.3007C150.656 94.3075 150.69 94.3136 150.723 94.3202L150.79 94.3333L150.843 94.3451C150.86 94.3497 150.878 94.3542 150.897 94.3587C150.965 94.3752 151 94.3848 151.035 94.3949C151.063 94.4036 151.092 94.4125 151.122 94.4217L151.23 94.4569L151.486 94.5567L151.553 94.5875L151.618 94.6166L151.737 94.6767L230.73 135.961L236.955 122.263L149.996 79.6738Z" fill="#000091"/>
</svg>
